SplineFontDB: 3.0
FontName: Untitled1
FullName: Untitled1
FamilyName: Untitled1
Weight: Medium
Copyright: Created by hn,,, with FontForge 2.0 (http://fontforge.sf.net)
UComments: "2014-5-8: Created." 
Version: 001.000
ItalicAngle: 0
UnderlinePosition: -100
UnderlineWidth: 50
Ascent: 800
Descent: 200
LayerCount: 2
Layer: 0 0 "+gMxmbwAA"  1
Layer: 1 0 "+Uk1mbwAA"  0
XUID: [1021 957 1260883539 984028]
OS2Version: 0
OS2_WeightWidthSlopeOnly: 0
OS2_UseTypoMetrics: 1
CreationTime: 1399487207
ModificationTime: 1399487308
OS2TypoAscent: 0
OS2TypoAOffset: 1
OS2TypoDescent: 0
OS2TypoDOffset: 1
OS2TypoLinegap: 0
OS2WinAscent: 0
OS2WinAOffset: 1
OS2WinDescent: 0
OS2WinDOffset: 1
HheadAscent: 0
HheadAOffset: 1
HheadDescent: 0
HheadDOffset: 1
OS2Vendor: 'PfEd'
DEI: 91125
Encoding: ISO8859-1
UnicodeInterp: none
NameList: Adobe Glyph List
DisplaySize: -48
AntiAlias: 1
FitToEm: 1
WinInfo: 12 12 10
BeginChars: 256 256

StartChar: A
Encoding: 65 65 0
Width: 746
Flags: W
HStem: 0 26<50 103 178.26 216 484 540.528 625.685 696> 241 26<228 472> 687 20G<368 378>
LayerCount: 2
Fore
SplineSet
390 691 m 2
 612 63 l 2
 625 26 643 26 696 26 c 1
 696 0 l 1
 672 2 622 2 596 2 c 0
 565 2 513 2 484 0 c 1
 484 26 l 1
 503 26 546 26 546 53 c 0
 546 57 546 59 541 71 c 2
 481 241 l 1
 219 241 l 1
 166 92 l 2
 164 86 162 81 162 72 c 0
 162 60 169 28 216 26 c 1
 216 0 l 1
 192 2 152 2 127 2 c 0
 108 2 68 2 50 0 c 1
 50 26 l 1
 85 26 125 37 144 91 c 2
 356 691 l 2
 361 704 363 707 373 707 c 0
 383 707 385 704 390 691 c 2
350 611 m 1
 228 267 l 1
 472 267 l 1
 350 611 l 1
EndSplineSet
EndChar

StartChar: B
Encoding: 66 66 1
Width: 655
Flags: W
HStem: 0 26<50 124.191 195.446 428.782> 347 16<193 392.135> 657 26<50 124.191 195.446 423.687>
VStem: 130 63<29.0512 347 363 653.949> 506 73<444.051 587.175> 531 74<105.844 258.731>
LayerCount: 2
Fore
SplineSet
50 683 m 1xf4
 368 683 l 2
 497 683 579 598 579 515 c 0xf8
 579 439 512 375 416 356 c 1
 523 349 605 272 605 182 c 0
 605 91 522 0 394 0 c 2
 50 0 l 1
 50 26 l 1
 119 26 130 26 130 71 c 2
 130 612 l 2
 130 657 119 657 50 657 c 1
 50 683 l 1xf4
193 363 m 1
 337 363 l 2
 445 363 506 439 506 515 c 0
 506 577 462 657 363 657 c 2
 235 657 l 2
 195 657 193 652 193 618 c 2
 193 363 l 1
235 26 m 2
 365 26 l 2
 474 26 531 110 531 183 c 0xf4
 531 256 481 347 378 347 c 2
 193 347 l 1
 193 65 l 2
 193 31 195 26 235 26 c 2
EndSplineSet
EndChar

StartChar: C
Encoding: 67 67 2
Width: 675
Flags: W
HStem: -16 26<315.608 452.84> 673 26<315.397 449.353>
VStem: 50 76<214.801 468.876> 607 18<180.23 247.997 422.043 461.568>
LayerCount: 2
Fore
SplineSet
625 679 m 2
 625 442 l 2
 625 424 625 422 614 422 c 0
 605 422 605 424 603 436 c 0
 584 575 502 673 389 673 c 0
 292 673 126 603 126 342 c 0
 126 82 289 10 391 10 c 0
 499 10 599 96 607 236 c 0
 608 245 608 248 616 248 c 0
 625 248 625 244 625 234 c 0
 625 119 530 -16 377 -16 c 0
 205 -16 50 134 50 342 c 0
 50 548 205 699 376 699 c 0
 453 699 513 663 562 601 c 1
 606 685 l 2
 613 697 614 698 618 698 c 0
 624 698 625 697 625 679 c 2
EndSplineSet
EndChar

StartChar: D
Encoding: 68 68 3
Width: 708
Flags: W
HStem: 0 26<50 124.191 196.446 419.553> 657 26<50 124.191 196.446 419.891>
VStem: 130 64<29.0512 653.949> 584 74<210.88 464.387>
LayerCount: 2
Fore
SplineSet
50 683 m 1
 368 683 l 2
 531 683 658 525 658 336 c 0
 658 148 529 0 368 0 c 2
 50 0 l 1
 50 26 l 1
 119 26 130 26 130 71 c 2
 130 612 l 2
 130 657 119 657 50 657 c 1
 50 683 l 1
236 26 m 2
 348 26 l 2
 443 26 500 80 524 111 c 1
 543 138 584 195 584 336 c 0
 584 608 431 657 348 657 c 2
 236 657 l 2
 196 657 194 652 194 618 c 2
 194 65 l 2
 194 31 196 26 236 26 c 2
EndSplineSet
EndChar

StartChar: E
Encoding: 69 69 4
Width: 656
Flags: W
HStem: 0 26<50 124.191 198.446 470.901> 341 26<196 359.893> 655 26<50 124.191 198.446 467.641>
VStem: 130 66<29.0512 341 367 651.949> 393 18<224 299.729 408.271 484>
LayerCount: 2
Fore
SplineSet
606 253 m 1
 570 0 l 1
 50 0 l 1
 50 26 l 1
 119 26 130 26 130 71 c 2
 130 610 l 2
 130 655 119 655 50 655 c 1
 50 681 l 1
 556 681 l 1
 580 460 l 1
 562 460 l 1
 548 593 530 655 375 655 c 2
 238 655 l 2
 198 655 196 650 196 616 c 2
 196 367 l 1
 290 367 l 2
 384 367 393 401 393 484 c 1
 411 484 l 1
 411 224 l 1
 393 224 l 1
 393 307 384 341 290 341 c 2
 196 341 l 1
 196 65 l 2
 196 31 198 26 238 26 c 2
 377 26 l 2
 553 26 566 106 588 253 c 1
 606 253 l 1
EndSplineSet
EndChar

StartChar: F
Encoding: 70 70 5
Width: 617
Flags: W
HStem: 0 26<50 124.191 203.178 296> 328 26<196 355.175> 655 26<50 124.191 198.446 457.172>
VStem: 130 66<30.6349 328 354 651.949> 388 18<211 287.164 394.836 471>
LayerCount: 2
Fore
SplineSet
543 681 m 1
 567 460 l 1
 549 460 l 1
 535 593 518 655 367 655 c 2
 238 655 l 2
 198 655 196 650 196 616 c 2
 196 354 l 1
 286 354 l 2
 379 354 388 387 388 471 c 1
 406 471 l 1
 406 211 l 1
 388 211 l 1
 388 295 379 328 286 328 c 2
 196 328 l 1
 196 72 l 2
 196 36 198 26 274 26 c 2
 296 26 l 1
 296 0 l 1
 255 2 207 2 166 2 c 0
 135 2 79 2 50 0 c 1
 50 26 l 1
 119 26 130 26 130 71 c 2
 130 610 l 2
 130 655 119 655 50 655 c 1
 50 681 l 1
 543 681 l 1
EndSplineSet
EndChar

StartChar: G
Encoding: 71 71 6
Width: 740
Flags: W
HStem: -16 26<322.335 465.926> 1 21G<616.5 621.5> 242 26<441 550.985 629.219 690> 673 26<315.397 449.353>
VStem: 50 76<215.216 468.876> 559 66<64 236.13> 603 22<422.002 486.092>
LayerCount: 2
Fore
SplineSet
625 199 m 2xbc
 625 20 l 2
 625 2 624 1 619 1 c 0x7a
 614 1 586 29 569 70 c 1
 538 13 459 -16 378 -16 c 0
 202 -16 50 137 50 342 c 0
 50 548 205 699 376 699 c 0
 453 699 513 663 562 601 c 1
 606 685 l 2
 613 697 614 698 618 698 c 0
 624 698 625 697 625 679 c 2
 625 442 l 2
 625 424 625 422 614 422 c 0
 605 422 605 424 603 436 c 0xba
 584 575 502 673 389 673 c 0
 292 673 126 603 126 342 c 0
 126 81 295 10 398 10 c 0
 429 10 559 19 559 129 c 2
 559 195 l 2
 559 231 557 242 471 242 c 2
 441 242 l 1
 441 268 l 1
 479 267 557 266 585 266 c 0
 612 266 666 266 690 268 c 1
 690 242 l 1
 628 242 625 237 625 199 c 2xbc
EndSplineSet
EndChar

StartChar: H
Encoding: 72 72 7
Width: 690
Flags: W
HStem: 0 26<50 124.191 201.809 276 414 488.191 565.808 640> 342 26<196 494> 657 26<50 124.191 201.809 276 414 488.191 565.808 640>
VStem: 130 66<29.0171 342 368 653.983> 494 66<29.0171 342 368 653.983>
LayerCount: 2
Fore
SplineSet
560 612 m 2
 560 71 l 2
 560 26 571 26 640 26 c 1
 640 0 l 1
 611 2 558 2 527 2 c 0
 496 2 443 2 414 0 c 1
 414 26 l 1
 483 26 494 26 494 71 c 2
 494 342 l 1
 196 342 l 1
 196 71 l 2
 196 26 207 26 276 26 c 1
 276 0 l 1
 247 2 194 2 163 2 c 0
 132 2 79 2 50 0 c 1
 50 26 l 1
 119 26 130 26 130 71 c 2
 130 612 l 2
 130 657 119 657 50 657 c 1
 50 683 l 1
 79 681 132 681 163 681 c 0
 194 681 247 681 276 683 c 1
 276 657 l 1
 207 657 196 657 196 612 c 2
 196 368 l 1
 494 368 l 1
 494 612 l 2
 494 657 483 657 414 657 c 1
 414 683 l 1
 443 681 496 681 527 681 c 0
 558 681 611 681 640 683 c 1
 640 657 l 1
 571 657 560 657 560 612 c 2
EndSplineSet
EndChar

StartChar: I
Encoding: 73 73 8
Width: 334
Flags: W
HStem: 0 26<50 127.796 206.204 284> 657 26<50 127.796 206.204 284>
VStem: 134 66<29.3788 653.621>
LayerCount: 2
Fore
SplineSet
200 612 m 2
 200 71 l 2
 200 26 212 26 284 26 c 1
 284 0 l 1
 252 2 201 2 167 2 c 0
 133 2 82 2 50 0 c 1
 50 26 l 1
 122 26 134 26 134 71 c 2
 134 612 l 2
 134 657 122 657 50 657 c 1
 50 683 l 1
 82 681 133 681 167 681 c 0
 201 681 252 681 284 683 c 1
 284 657 l 1
 212 657 200 657 200 612 c 2
EndSplineSet
EndChar

StartChar: J
Encoding: 74 74 9
Width: 466
Flags: W
HStem: -16 16<149.187 222.838> 71 85<79.1882 129.827> 657 26<188 284.655 360.369 416>
VStem: 50 85<78.2641 151.093> 292 64<66.6875 652.005>
LayerCount: 2
Fore
SplineSet
292 147 m 2
 292 610 l 2
 292 646 290 657 212 657 c 2
 188 657 l 1
 188 683 l 1
 230 681 276 681 318 681 c 0
 343 681 414 683 416 683 c 1
 416 657 l 1
 385 657 362 657 358 638 c 0
 356 632 356 604 356 587 c 2
 356 167 l 2
 356 133 356 131 355 124 c 0
 343 40 271 -16 193 -16 c 0
 111 -16 50 45 50 112 c 0
 50 141 69 156 93 156 c 0
 118 156 135 138 135 114 c 0
 135 84 111 71 92 71 c 0
 88 71 83 72 79 73 c 1
 105 12 165 0 191 0 c 0
 242 0 292 55 292 147 c 2
EndSplineSet
EndChar

StartChar: K
Encoding: 75 75 10
Width: 734
Flags: W
HStem: 0 26<50 124.191 201.809 276 485 522.431 624.564 684> 657 26<50 124.191 201.809 276 506 531.509 614.75 671>
VStem: 130 66<29.0171 248 273 653.983>
LayerCount: 2
Fore
SplineSet
368 419 m 1
 591 78 l 2
 621 32 636 26 684 26 c 1
 684 0 l 1
 661 2 620 2 596 2 c 0
 563 2 517 2 485 0 c 1
 485 26 l 1
 498 26 526 26 526 52 c 0
 526 62 519 75 513 85 c 2
 324 375 l 1
 196 248 l 1
 196 71 l 2
 196 26 207 26 276 26 c 1
 276 0 l 1
 247 2 194 2 163 2 c 0
 132 2 79 2 50 0 c 1
 50 26 l 1
 119 26 130 26 130 71 c 2
 130 612 l 2
 130 657 119 657 50 657 c 1
 50 683 l 1
 79 681 132 681 163 681 c 0
 194 681 247 681 276 683 c 1
 276 657 l 1
 207 657 196 657 196 612 c 2
 196 273 l 1
 528 606 l 1
 532 612 536 623 536 630 c 0
 536 637 532 655 506 657 c 1
 506 683 l 1
 532 681 579 681 606 681 c 0
 626 681 651 682 671 683 c 1
 671 657 l 1
 615 655 577 627 541 592 c 2
 368 419 l 1
EndSplineSet
EndChar

StartChar: L
Encoding: 76 76 11
Width: 591
Flags: W
HStem: 0 26<50 124.191 198.446 411.532> 657 26<50 124.191 203.178 296>
VStem: 130 66<29.0512 652.365>
LayerCount: 2
Fore
SplineSet
541 253 m 1
 517 0 l 1
 50 0 l 1
 50 26 l 1
 119 26 130 26 130 71 c 2
 130 612 l 2
 130 657 119 657 50 657 c 1
 50 683 l 1
 79 681 135 681 166 681 c 0
 207 681 255 681 296 683 c 1
 296 657 l 1
 274 657 l 2
 198 657 196 647 196 611 c 2
 196 65 l 2
 196 31 198 26 238 26 c 2
 331 26 l 2
 502 26 515 154 523 253 c 1
 541 253 l 1
EndSplineSet
EndChar

StartChar: M
Encoding: 77 77 12
Width: 843
Flags: W
HStem: 0 26<50 105.736 174.264 230 572 646.192 718.808 793> 653 30<50 127.203 150 151 651 652 715.797 793>
VStem: 130 20<52.625 648.305> 652 61<29.0171 653.983>
LayerCount: 2
Fore
SplineSet
206 667 m 2
 422 81 l 1
 638 667 l 2
 644 682 645 683 666 683 c 2
 793 683 l 1
 793 657 l 1
 724 657 713 657 713 612 c 2
 713 71 l 2
 713 26 724 26 793 26 c 1
 793 0 l 1
 766 2 711 2 682 2 c 0
 653 2 599 2 572 0 c 1
 572 26 l 1
 641 26 652 26 652 71 c 2
 652 658 l 1
 651 658 l 1
 414 16 l 2
 410 6 408 0 400 0 c 0
 392 0 390 6 386 16 c 2
 151 653 l 1
 150 653 l 1
 150 98 l 2
 150 73 150 26 230 26 c 1
 230 0 l 1
 207 2 165 2 140 2 c 0
 115 2 73 2 50 0 c 1
 50 26 l 1
 130 26 130 73 130 98 c 2
 130 612 l 2
 130 657 119 657 50 657 c 1
 50 683 l 1
 178 683 l 2
 199 683 200 682 206 667 c 2
EndSplineSet
EndChar

StartChar: N
Encoding: 78 78 13
Width: 690
Flags: W
HStem: 0 26<50 105.736 174.264 230> 657 26<50 129.848 460 515.736 584.264 640>
VStem: 130 20<52.625 637> 540 20<122 630.375>
LayerCount: 2
Fore
SplineSet
204 671 m 2
 540 122 l 1
 540 585 l 2
 540 610 540 657 460 657 c 1
 460 683 l 1
 483 681 525 681 550 681 c 0
 575 681 617 681 640 683 c 1
 640 657 l 1
 560 657 560 610 560 585 c 2
 560 22 l 2
 560 3 560 0 550 0 c 0
 545 0 542 0 535 12 c 2
 164 619 l 2
 157 629 157 631 150 637 c 1
 150 98 l 2
 150 73 150 26 230 26 c 1
 230 0 l 1
 207 2 165 2 140 2 c 0
 115 2 73 2 50 0 c 1
 50 26 l 1
 130 26 130 73 130 98 c 2
 130 651 l 1
 127 652 109 657 69 657 c 2
 50 657 l 1
 50 683 l 1
 177 683 l 2
 196 683 197 682 204 671 c 2
EndSplineSet
EndChar

StartChar: O
Encoding: 79 79 14
Width: 727
Flags: W
HStem: -16 18<309.731 417.106> 681 18<308.997 418.389>
VStem: 50 76<215.034 468.118> 601 76<214.834 467.962>
LayerCount: 2
Fore
SplineSet
677 340 m 0
 677 140 534 -16 363 -16 c 0
 196 -16 50 137 50 340 c 0
 50 543 194 699 364 699 c 0
 530 699 677 545 677 340 c 0
364 2 m 0
 474 2 601 112 601 353 c 0
 601 586 469 681 363 681 c 0
 262 681 126 589 126 353 c 0
 126 116 250 2 364 2 c 0
EndSplineSet
EndChar

StartChar: P
Encoding: 80 80 15
Width: 629
Flags: W
HStem: 0 26<50 124.191 201.809 276> 321 21<196 408.181> 657 26<50 124.191 196.446 414.348>
VStem: 130 64<29.7683 321 342 653.949> 503 76<423.555 576.596>
LayerCount: 2
Fore
SplineSet
196 321 m 1
 196 71 l 2
 196 26 207 26 276 26 c 1
 276 0 l 1
 247 2 194 2 163 2 c 0
 132 2 79 2 50 0 c 1
 50 26 l 1
 119 26 130 26 130 71 c 2
 130 612 l 2
 130 657 119 657 50 657 c 1
 50 683 l 1
 356 683 l 2
 487 683 579 595 579 500 c 0
 579 405 485 321 356 321 c 2
 196 321 l 1
194 342 m 1
 337 342 l 2
 459 342 503 409 503 500 c 0
 503 583 466 657 337 657 c 2
 236 657 l 2
 196 657 194 652 194 618 c 2
 194 342 l 1
EndSplineSet
EndChar

StartChar: Q
Encoding: 81 81 16
Width: 732
Flags: W
HStem: -195 76<524.12 627.732> -16 18<332.83 419.084> 129 16<336.167 400.165> 681 18<310.292 416.871>
VStem: 50 74<215.424 466.96> 290 16<32.8448 97.2803> 603 74<210.962 466.587> 669 13<-41.5261 5.97961>
LayerCount: 2
Fore
SplineSet
477 9 m 1xfe
 496 -66 517 -119 576 -119 c 0
 608 -119 662 -99 669 -3 c 0
 669 -1 670 6 675 6 c 0
 682 6 682 -1 682 -11 c 0xfd
 682 -39 677 -195 571 -195 c 0
 485 -195 474 -122 457 0 c 1
 419 -13 387 -16 364 -16 c 0
 194 -16 50 140 50 340 c 0
 50 543 194 699 364 699 c 0
 530 699 677 545 677 340 c 0
 677 190 596 60 477 9 c 1xfe
310 10 m 1
 299 23 290 42 290 65 c 0
 290 103 317 145 365 145 c 0
 430 145 454 85 469 34 c 1
 536 77 603 171 603 340 c 0xfe
 603 574 475 681 363 681 c 0
 255 681 124 578 124 340 c 0
 124 154 206 43 310 10 c 1
453 25 m 1
 445 72 429 129 365 129 c 0
 327 129 306 96 306 65 c 0
 306 43 319 2 364 2 c 0
 381 2 413 4 453 25 c 1
EndSplineSet
EndChar

StartChar: R
Encoding: 82 82 17
Width: 730
Flags: W
HStem: -16 16<568.988 625.682> 0 26<50 124.191 199.809 274> 334 16<194 364.079> 657 26<50 124.191 196.446 393.689>
VStem: 130 64<29.0171 334 350 653.949> 489 76<436.087 575.979> 662 18<44.8887 96.9949>
LayerCount: 2
Fore
SplineSet
390 341 m 1x7e
 509 305 517 232 523 182 c 0
 525 160 527 145 530 124 c 0
 536 63 542 0 597 0 c 0
 628 0 657 22 662 87 c 0
 662 91 663 97 671 97 c 0
 680 97 680 90 680 84 c 0
 680 67 669 -16 595 -16 c 0xbe
 573 -16 522 -12 484 29 c 1
 454 63 454 97 454 164 c 0
 454 232 454 259 414 298 c 0
 400 311 368 334 311 334 c 2
 194 334 l 1
 194 71 l 2
 194 26 205 26 274 26 c 1
 274 0 l 1
 245 2 193 2 162 2 c 0
 131 2 79 2 50 0 c 1
 50 26 l 1
 119 26 130 26 130 71 c 2
 130 612 l 2
 130 657 119 657 50 657 c 1
 50 683 l 1
 319 683 l 2
 459 683 565 598 565 504 c 0
 565 424 485 360 390 341 c 1x7e
308 350 m 2
 383 350 489 375 489 504 c 0
 489 628 392 657 309 657 c 2
 236 657 l 2
 196 657 194 652 194 618 c 2
 194 350 l 1
 308 350 l 2
EndSplineSet
EndChar

StartChar: S
Encoding: 83 83 18
Width: 518
Flags: W
HStem: -16 26<202.747 338.344> 675 24<180.03 300.34>
VStem: 50 48<465.665 600.962> 50 30<-9.92188 52.7748> 50 18<155.628 226.999> 420 48<88.8729 239.15> 422 20<456.021 524.699 685 697.497>
LayerCount: 2
Fore
SplineSet
442 679 m 2xe2
 442 476 l 2
 442 459 442 456 433 456 c 0
 426 456 425 457 422 475 c 0
 407 600 341 675 235 675 c 0
 150 675 98 604 98 539 c 0xe2
 98 507 108 475 136 444 c 0
 161 417 184 410 238 396 c 0
 294 382 296 382 303 379 c 1
 351 367 396 355 438 291 c 0
 449 273 468 233 468 181 c 0
 468 75 391 -16 282 -16 c 0
 234 -16 150 -2 100 64 c 1
 81 26 81 24 80 21 c 0
 66 -10 64 -15 57 -15 c 0
 51 -15 50 -14 50 4 c 2xd4
 50 206 l 2
 50 226 51 227 59 227 c 0
 66 227 67 226 68 210 c 0
 75 70 175 10 282 10 c 0
 369 10 420 87 420 159 c 0xcc
 420 215 390 275 333 299 c 0
 323 303 273 316 243 324 c 0
 163 345 128 353 91 399 c 0
 57 441 50 485 50 516 c 0
 50 618 132 699 234 699 c 0
 297 699 355 674 393 619 c 1
 423 685 l 2
 427 694 429 698 435 698 c 0
 441 698 442 697 442 679 c 2xe2
EndSplineSet
EndChar

StartChar: T
Encoding: 84 84 19
Width: 711
Flags: W
HStem: 0 26<209 314.829 397.171 503> 654 26<141.399 320.625 391.468 569.158>
VStem: 50 18<459 538.638> 323 66<31.8699 653.256> 643 18<459 538.638>
LayerCount: 2
Fore
SplineSet
644 680 m 1
 661 459 l 1
 643 459 l 1
 630 625 615 654 462 654 c 0
 444 654 415 654 407 653 c 0
 389 649 389 637 389 615 c 2
 389 73 l 2
 389 37 392 26 475 26 c 2
 503 26 l 1
 503 0 l 1
 455 1 405 2 356 2 c 0
 307 2 257 1 209 0 c 1
 209 26 l 1
 237 26 l 2
 320 26 323 37 323 73 c 2
 323 615 l 2
 323 638 323 650 304 653 c 0
 296 654 267 654 249 654 c 0
 95 654 81 625 68 459 c 1
 50 459 l 1
 67 680 l 1
 644 680 l 1
EndSplineSet
EndChar

StartChar: U
Encoding: 85 85 20
Width: 690
Flags: W
HStem: -16 26<299.859 417.212> 657 26<50 124.191 201.809 276 459 514.736 584.623 640>
VStem: 130 66<124.439 653.983> 539 21<153.711 629.866>
LayerCount: 2
Fore
SplineSet
539 229 m 2
 539 585 l 2
 539 610 539 657 459 657 c 1
 459 683 l 1
 482 681 525 681 550 681 c 0
 575 681 617 681 640 683 c 1
 640 657 l 1
 611 657 560 651 560 595 c 2
 560 215 l 2
 560 117 485 -16 355 -16 c 0
 239 -16 130 85 130 229 c 2
 130 612 l 2
 130 657 119 657 50 657 c 1
 50 683 l 1
 79 681 132 681 163 681 c 0
 194 681 247 681 276 683 c 1
 276 657 l 1
 207 657 196 657 196 612 c 2
 196 224 l 2
 196 189 200 127 232 79 c 0
 260 37 306 10 357 10 c 0
 452 10 539 95 539 229 c 2
EndSplineSet
EndChar

StartChar: V
Encoding: 86 86 21
Width: 772
Flags: W
HStem: 657 26<50 117.815 203.125 259 560 597.444 670.965 722>
LayerCount: 2
Fore
SplineSet
630 591 m 2
 403 0 l 2
 398 -14 397 -16 386 -16 c 0
 375 -16 374 -14 369 0 c 2
 131 621 l 2
 119 653 108 657 50 657 c 1
 50 683 l 1
 74 681 121 681 147 681 c 0
 180 681 227 681 259 683 c 1
 259 657 l 1
 238 657 198 657 198 630 c 0
 198 625 200 620 203 613 c 2
 409 74 l 1
 606 587 l 2
 609 595 612 602 612 613 c 0
 612 619 610 654 560 657 c 1
 560 683 l 1
 583 681 624 681 648 681 c 0
 673 681 699 681 722 683 c 1
 722 657 l 1
 655 656 639 613 630 591 c 2
EndSplineSet
EndChar

StartChar: W
Encoding: 87 87 22
Width: 1036
Flags: W
HStem: 657 26<50 112.666 196.376 254 420 482.504 566.363 623 823 866.596 939.928 986>
VStem: 508 52<559.001 639.202>
LayerCount: 2
Fore
SplineSet
904 593 m 2
 717 1 l 2
 712 -14 712 -16 703 -16 c 0
 695 -16 692 -14 688 0 c 2
 518 542 l 1
 348 0 l 2
 344 -14 341 -16 333 -16 c 0
 324 -16 324 -14 319 1 c 2
 124 619 l 2
 114 651 110 657 50 657 c 1
 50 683 l 1
 74 681 118 681 144 681 c 0
 175 681 225 681 254 683 c 1
 254 657 l 1
 234 657 190 657 190 629 c 0
 190 627 190 625 195 611 c 2
 358 92 l 1
 505 559 l 2
 506 562 508 568 508 572 c 0
 508 575 492 627 488 636 c 0
 478 654 466 657 420 657 c 1
 420 683 l 1
 443 681 488 681 513 681 c 0
 544 681 594 681 623 683 c 1
 623 657 l 1
 604 657 560 657 560 629 c 0
 560 625 561 621 564 611 c 2
 727 91 l 1
 882 585 l 2
 886 596 887 600 887 607 c 0
 887 631 868 656 823 657 c 1
 823 683 l 1
 847 681 891 681 916 681 c 0
 934 681 969 682 986 683 c 1
 986 657 l 1
 928 655 913 620 904 593 c 2
EndSplineSet
EndChar

StartChar: X
Encoding: 88 88 23
Width: 766
Flags: W
HStem: 0 26<50 115.937 204.201 234 502 538.875 639.773 716> 657 26<63 138.391 240.238 277 493 523.205 611.77 677>
LayerCount: 2
Fore
SplineSet
402 379 m 1
 622 59 l 2
 642 31 652 26 716 26 c 1
 716 0 l 1
 692 2 642 2 616 2 c 0
 583 2 534 2 502 0 c 1
 502 26 l 1
 537 28 546 45 546 53 c 0
 546 56 546 59 538 70 c 2
 364 324 l 1
 204 92 l 2
 199 85 194 78 194 65 c 0
 194 49 203 29 234 26 c 1
 234 0 l 1
 209 2 162 2 135 2 c 0
 111 2 73 2 50 0 c 1
 50 26 l 1
 69 26 134 27 177 89 c 2
 351 342 l 1
 158 624 l 2
 136 655 118 657 63 657 c 1
 63 683 l 1
 87 681 137 681 163 681 c 0
 196 681 245 681 277 683 c 1
 277 657 l 1
 244 656 233 639 233 630 c 0
 233 627 234 624 241 613 c 2
 389 397 l 1
 521 588 l 2
 528 598 533 606 533 618 c 0
 533 634 525 654 493 657 c 1
 493 683 l 1
 518 681 559 681 592 681 c 0
 616 681 654 681 677 683 c 1
 677 657 l 1
 595 656 565 613 550 592 c 2
 402 379 l 1
EndSplineSet
EndChar

StartChar: Y
Encoding: 89 89 24
Width: 788
Flags: W
HStem: 0 26<282 356.191 431.993 507> 657 26<50 124.372 216.921 264 575 606.134 680.539 738>
VStem: 362 64<29.2853 273>
LayerCount: 2
Fore
SplineSet
627 594 m 2
 426 273 l 1
 426 75 l 2
 426 26 435 26 507 26 c 1
 507 0 l 1
 478 2 425 2 394 2 c 0
 363 2 311 2 282 0 c 1
 282 26 l 1
 351 26 362 26 362 71 c 2
 362 273 l 1
 141 625 l 2
 123 654 107 657 50 657 c 1
 50 683 l 1
 74 681 124 681 150 681 c 0
 183 681 232 681 264 683 c 1
 264 657 l 1
 250 657 215 657 215 637 c 0
 215 630 216 629 223 617 c 2
 420 302 l 1
 600 591 l 2
 608 604 613 612 613 624 c 0
 613 643 600 656 575 657 c 1
 575 683 l 1
 599 681 639 681 664 681 c 0
 689 681 715 681 738 683 c 1
 738 657 l 1
 720 657 666 656 627 594 c 2
EndSplineSet
EndChar

StartChar: Z
Encoding: 90 90 25
Width: 575
Flags: W
HStem: 0 28<126 400.877> 657 26<185.456 444>
VStem: 63 18<462 531.573> 507 18<174.61 261>
LayerCount: 2
Fore
SplineSet
520 663 m 1
 126 28 l 1
 300 28 l 2
 491 28 498 130 507 261 c 1
 525 261 l 1
 511 0 l 1
 72 0 l 2
 52 0 50 0 50 13 c 0
 50 20 50 21 57 32 c 2
 444 657 l 1
 279 657 l 2
 117 657 87 576 81 462 c 1
 63 462 l 1
 73 683 l 1
 498 683 l 2
 519 683 520 682 520 663 c 1
EndSplineSet
EndChar

StartChar: a
Encoding: 97 97 26
Width: 519
Flags: W
HStem: -8 16<163.024 238.419> -4 23<385.104 432.066> 239 15<256 317> 275 72<102.25 147.43> 426 16<171.698 247.631>
VStem: 50 61<36.3591 161.61> 78 72<277.882 344.323> 317 53<26.0007 239 254 375.414> 451 18<41.1406 145>
LayerCount: 2
Fore
SplineSet
370 259 m 2xbb80
 370 115 l 2
 370 71 370 19 411 19 c 0
 424 19 451 27 451 88 c 2
 451 145 l 1
 469 145 l 1
 469 89 l 2
 469 10 416 -4 395 -4 c 0x7b80
 351 -4 323 36 321 80 c 1
 299 23 248 -8 193 -8 c 0
 140 -8 50 14 50 91 c 0xbd80
 50 129 68 179 131 214 c 0
 187 244 258 252 317 254 c 1
 317 298 l 2
 317 382 262 426 212 426 c 0
 177 426 123 408 102 345 c 1
 105 346 110 347 114 347 c 0
 131 347 150 336 150 311 c 0
 150 283 127 275 114 275 c 0
 108 275 78 277 78 314 c 0
 78 380 135 442 214 442 c 0
 248 442 291 432 328 399 c 0
 370 360 370 325 370 259 c 2xbb80
317 139 m 2
 317 239 l 1
 285 237 230 233 182 206 c 0
 124 174 111 121 111 91 c 0
 111 45 150 8 200 8 c 0xbd80
 255 8 317 52 317 139 c 2
EndSplineSet
EndChar

StartChar: b
Encoding: 98 98 27
Width: 546
Flags: W
HStem: -8 16<249.236 329.198> 0 21G<118 144.169> 422 16<256.138 337.681> 657 26<50 110.116> 674 20G<50 169>
VStem: 118 51<65.2323 365.08 366 653.004> 432 64<115.773 318.64>
LayerCount: 2
Fore
SplineSet
169 694 m 1x2e
 169 366 l 1
 199 405 243 438 305 438 c 0
 406 438 496 344 496 216 c 0
 496 80 395 -8 295 -8 c 0xae
 237 -8 194 24 165 71 c 1
 136 0 l 1
 118 0 l 1
 118 603 l 2
 118 651 109 657 50 657 c 1
 50 683 l 1x76
 169 694 l 1x2e
171 315 m 2
 171 117 l 2
 171 99 171 97 182 78 c 0
 214 20 259 8 290 8 c 0
 314 8 432 19 432 217 c 0
 432 406 329 422 299 422 c 0
 280 422 224 417 185 357 c 0
 171 336 171 333 171 315 c 2
EndSplineSet
EndChar

StartChar: c
Encoding: 99 99 28
Width: 451
Flags: W
HStem: -8 18<212.503 298.905> 279 71<321.709 365.717> 424 18<207.102 295.306>
VStem: 50 64<113.708 319.334> 319 72<281.795 345.842> 381 20<86.5574 124.946>
LayerCount: 2
Fore
SplineSet
366 350 m 1xf8
 344 405 286 424 247 424 c 0
 188 424 114 369 114 217 c 0
 114 69 191 10 255 10 c 0
 298 10 355 30 381 111 c 0
 385 124 386 125 393 125 c 0
 400 125 401 122 401 118 c 0xf4
 401 107 370 -8 246 -8 c 0
 144 -8 50 83 50 216 c 0
 50 344 140 442 246 442 c 0
 323 442 391 388 391 317 c 0
 391 282 362 279 355 279 c 0
 342 279 319 287 319 315 c 0
 319 350 347 350 366 350 c 1xf8
EndSplineSet
EndChar

StartChar: d
Encoding: 100 100 29
Width: 546
Flags: W
HStem: -8 16<208.927 288.458> 0 26<435.884 496> 422 16<216.101 298.322> 657 26<309 369.116> 674 20G<309 428>
VStem: 50 64<113.57 313.818> 375 53<29.9956 653.411>
LayerCount: 2
Fore
SplineSet
309 683 m 1xb6
 428 694 l 1
 428 80 l 2
 428 32 437 26 496 26 c 1
 496 0 l 1x6e
 375 -8 l 1
 375 65 l 1
 370 58 326 -8 241 -8 c 0
 143 -8 50 84 50 215 c 0
 50 347 149 438 251 438 c 0
 332 438 373 374 377 369 c 1
 377 603 l 2
 377 651 368 657 309 657 c 1
 309 683 l 1xb6
375 120 m 2
 375 318 l 2
 375 336 375 339 362 360 c 0
 339 396 302 422 256 422 c 0
 230 422 114 410 114 214 c 0
 114 23 218 8 247 8 c 0xa6
 266 8 300 13 334 43 c 0
 357 63 375 90 375 120 c 2
EndSplineSet
EndChar

StartChar: e
Encoding: 101 101 30
Width: 458
Flags: W
HStem: -8 18<215.515 303.505> 235 15<115 354> 426 16<204.912 276.391>
VStem: 50 64<117.76 235 250 319.663> 354 54<250.086 351.41> 387 20<88.0938 125.91>
LayerCount: 2
Fore
SplineSet
404 235 m 1xf8
 114 235 l 1
 114 188 114 129 145 78 c 0
 172 34 215 10 258 10 c 0
 310 10 365 44 387 112 c 0
 391 124 392 126 399 126 c 0
 401 126 407 126 407 119 c 0xf4
 407 98 363 -8 251 -8 c 0
 145 -8 50 88 50 218 c 0
 50 341 134 442 240 442 c 0
 354 442 408 353 408 251 c 0
 408 241 408 239 404 235 c 1xf8
115 250 m 1
 354 250 l 1xf8
 353 362 307 426 239 426 c 0
 199 426 122 394 115 250 c 1
EndSplineSet
EndChar

StartChar: f
Encoding: 102 102 31
Width: 391
Flags: W
HStem: 0 26<62 125.359 187.204 265> 404 26<50 130 181 295> 686 16<236.737 296.201>
VStem: 130 51<29.3788 404 430 632.823> 273 68<609.121 671.986>
LayerCount: 2
Fore
SplineSet
181 404 m 1
 181 71 l 2
 181 26 193 26 265 26 c 1
 265 0 l 1
 238 2 187 2 158 2 c 0
 132 2 86 2 62 0 c 1
 62 26 l 1
 126 26 130 31 130 69 c 2
 130 404 l 1
 50 404 l 1
 50 430 l 1
 130 430 l 1
 130 549 l 2
 130 655 208 702 265 702 c 0
 305 702 341 679 341 641 c 0
 341 615 321 607 307 607 c 0
 293 607 273 615 273 641 c 0
 273 666 294 673 302 675 c 1
 292 682 277 686 264 686 c 0
 221 686 179 634 179 551 c 2
 179 430 l 1
 295 430 l 1
 295 404 l 1
 181 404 l 1
EndSplineSet
EndChar

StartChar: g
Encoding: 103 103 32
Width: 531
Flags: W
HStem: -204 17<195.833 323.823> 14 45<137.814 384.375> 148 17<196.996 268.574> 421 17<197.426 269.15> 430 16<392.945 448.264>
VStem: 50 40<-128.663 -22.4475> 86 59<218.189 368.371> 99 23<86.3533 160.363> 321 59<217.629 367.931> 428 40<-128.874 -26.7748> 436 45<384.029 426.951>
LayerCount: 2
Fore
SplineSet
141 180 m 1xeaa0
 122 158 122 136 122 127 c 0
 122 92 143 64 174 59 c 0
 179 58 220 58 243 58 c 0
 320 58 468 58 468 -78 c 0
 468 -153 369 -204 259 -204 c 0
 145 -204 50 -151 50 -79 c 0
 50 -29 91 11 143 24 c 1
 109 45 99 83 99 109 c 0xedc0
 99 114 99 155 129 190 c 1
 119 200 86 236 86 293 c 0
 86 376 154 438 233 438 c 0xf280
 265 438 301 428 331 401 c 1
 359 427 394 446 434 446 c 0
 466 446 481 426 481 407 c 0
 481 394 473 384 458 384 c 0
 445 384 436 393 436 406 c 0
 436 422 445 426 449 427 c 1
 444 430 438 430 434 430 c 0
 411 430 370 420 342 390 c 1
 372 359 380 319 380 293 c 0
 380 210 312 148 233 148 c 0
 193 148 160 165 141 180 c 1xeaa0
233 165 m 0
 321 165 321 273 321 293 c 0
 321 313 321 421 233 421 c 0
 145 421 145 313 145 293 c 0xf280
 145 273 145 165 233 165 c 0
259 -187 m 0
 359 -187 428 -134 428 -79 c 0
 428 14 314 14 232 14 c 0
 164 14 154 14 129 -3 c 0
 107 -19 90 -48 90 -79 c 0xe4c0
 90 -134 159 -187 259 -187 c 0
EndSplineSet
EndChar

StartChar: h
Encoding: 104 104 33
Width: 550
Flags: W
HStem: 0 26<50 113.359 175.641 239 311 374.359 436.641 500> 422 16<259.246 334.415> 657 26<50 110.116> 674 20G<50 169>
VStem: 118 51<28.9886 653.004> 379 53<28.9886 392.649>
LayerCount: 2
Fore
SplineSet
432 304 m 2xdc
 432 69 l 2
 432 30 436 26 500 26 c 1
 500 0 l 1
 476 2 431 2 405 2 c 0
 379 2 335 2 311 0 c 1
 311 26 l 1
 375 26 379 31 379 69 c 2
 379 308 l 2
 379 356 371 422 297 422 c 0
 227 422 171 353 171 261 c 2
 171 69 l 2
 171 30 175 26 239 26 c 1
 239 0 l 1
 215 2 170 2 144 2 c 0
 118 2 74 2 50 0 c 1
 50 26 l 1
 114 26 118 31 118 69 c 2
 118 603 l 2
 118 651 109 657 50 657 c 1
 50 683 l 1xec
 169 694 l 1
 169 339 l 1
 170 339 l 1
 182 372 222 438 304 438 c 0
 422 438 432 355 432 304 c 2xdc
EndSplineSet
EndChar

StartChar: i
Encoding: 105 105 34
Width: 280
Flags: W
HStem: 0 26<50 113.359 172.744 230> 401 26<54 110.725> 418 20G<54 169> 575 82<94.0781 165.922>
VStem: 89 82<580.078 651.922> 118 51<28.9098 397.411>
LayerCount: 2
Fore
SplineSet
171 616 m 0x98
 171 593 152 575 130 575 c 0
 107 575 89 594 89 616 c 0
 89 639 108 657 130 657 c 0
 153 657 171 638 171 616 c 0x98
54 427 m 1xd4
 169 438 l 1xb4
 169 68 l 2
 169 32 171 26 230 26 c 1
 230 0 l 1
 207 2 166 2 142 2 c 0
 117 2 74 2 50 0 c 1
 50 26 l 1
 114 26 118 31 118 69 c 2
 118 347 l 2
 118 395 110 401 54 401 c 1
 54 427 l 1xd4
EndSplineSet
EndChar

StartChar: j
Encoding: 106 106 35
Width: 315
Flags: W
HStem: -203 16<104.134 173.567> 401 26<140 205.219> 418 20G<140 265> 575 82<188.078 259.922>
VStem: 50 72<-168.609 -102.688> 183 82<580.078 651.922> 214 51<-141.75 396.254>
LayerCount: 2
Fore
SplineSet
265 616 m 0x9c
 265 593 246 575 224 575 c 0
 201 575 183 594 183 616 c 0
 183 639 202 657 224 657 c 0
 247 657 265 638 265 616 c 0x9c
140 427 m 1xda
 265 438 l 1xba
 265 -55 l 2
 265 -140 214 -203 145 -203 c 0
 94 -203 50 -177 50 -137 c 0
 50 -115 64 -100 86 -100 c 0
 109 -100 122 -117 122 -136 c 0
 122 -164 97 -171 90 -172 c 1
 112 -186 139 -187 146 -187 c 0
 205 -187 214 -109 214 -59 c 2
 214 346 l 2
 214 394 206 401 140 401 c 1
 140 427 l 1xda
EndSplineSet
EndChar

StartChar: k
Encoding: 107 107 36
Width: 544
Flags: W
HStem: 0 26<50 113.359 172.641 236 330 358.527 440.195 494> 404 26<317 338.76 417.675 473> 657 26<50 110.116> 674 20G<50 169>
VStem: 118 51<28.9886 179 204 653.004>
LayerCount: 2
Fore
SplineSet
280 264 m 2xd8
 406 79 l 2
 436 35 447 26 494 26 c 1
 494 0 l 1
 477 1 440 2 422 2 c 0
 397 2 354 2 330 0 c 1
 330 26 l 1
 342 26 360 29 360 47 c 0
 360 60 350 74 338 92 c 2
 237 242 l 1
 168 179 l 1
 168 69 l 2
 168 30 172 26 236 26 c 1
 236 0 l 1
 212 2 168 2 143 2 c 0
 118 2 74 2 50 0 c 1
 50 26 l 1
 114 26 118 31 118 69 c 2
 118 603 l 2
 118 651 109 657 50 657 c 1
 50 683 l 1xe8
 169 694 l 1
 169 204 l 1
 320 342 l 2
 321 342 341 361 341 381 c 0
 341 395 331 403 317 404 c 1
 317 430 l 1
 344 428 387 428 415 428 c 2
 464 429 l 2
 465 430 467 430 473 430 c 1
 473 404 l 1
 447 403 411 398 354 350 c 0
 345 342 274 277 274 275 c 0
 274 272 279 266 280 264 c 2xd8
EndSplineSet
EndChar

StartChar: l
Encoding: 108 108 37
Width: 287
Flags: W
HStem: 0 26<50 113.359 173.641 237> 657 26<50 110.116> 674 20G<50 169>
VStem: 118 51<28.9886 653.004>
LayerCount: 2
Fore
SplineSet
169 694 m 1xb0
 169 69 l 2
 169 30 173 26 237 26 c 1
 237 0 l 1
 213 2 169 2 143 2 c 0
 118 2 74 2 50 0 c 1
 50 26 l 1
 114 26 118 31 118 69 c 2
 118 603 l 2
 118 651 109 657 50 657 c 1
 50 683 l 1xd0
 169 694 l 1xb0
EndSplineSet
EndChar

StartChar: m
Encoding: 109 109 38
Width: 811
Flags: W
HStem: 0 26<50 113.359 175.641 239 311 374.359 436.641 500 572 635.359 697.641 761> 401 26<50 110.116> 422 16<258.432 334.949 520.565 595.531>
VStem: 118 53<28.9886 397.004> 379 53<28.9886 393.023> 640 53<28.9886 392.286>
CounterMasks: 1 1c
LayerCount: 2
Fore
SplineSet
693 304 m 2xbc
 693 69 l 2
 693 30 697 26 761 26 c 1
 761 0 l 1
 737 2 692 2 666 2 c 0
 640 2 596 2 572 0 c 1
 572 26 l 1
 636 26 640 31 640 69 c 2
 640 308 l 2
 640 356 632 422 558 422 c 0
 488 422 432 353 432 261 c 2
 432 69 l 2
 432 30 436 26 500 26 c 1
 500 0 l 1
 476 2 431 2 405 2 c 0
 379 2 335 2 311 0 c 1
 311 26 l 1
 375 26 379 31 379 69 c 2
 379 308 l 2
 379 356 371 422 297 422 c 0xbc
 227 422 171 353 171 261 c 2
 171 69 l 2
 171 30 175 26 239 26 c 1
 239 0 l 1
 215 2 170 2 144 2 c 0
 118 2 74 2 50 0 c 1
 50 26 l 1
 114 26 118 31 118 69 c 2
 118 347 l 2
 118 395 109 401 50 401 c 1
 50 427 l 1xdc
 168 438 l 1
 168 337 l 1
 169 337 l 1
 184 377 225 438 304 438 c 0
 360 438 419 420 431 338 c 1
 432 338 l 1
 450 392 497 438 565 438 c 0
 684 438 693 354 693 304 c 2xbc
EndSplineSet
EndChar

StartChar: n
Encoding: 110 110 39
Width: 550
Flags: W
HStem: 0 26<50 113.359 175.641 239 311 374.359 436.641 500> 401 26<50 110.116> 422 16<258.432 334.415>
VStem: 118 53<28.9886 397.004> 379 53<28.9886 392.649>
LayerCount: 2
Fore
SplineSet
432 304 m 2xb8
 432 69 l 2
 432 30 436 26 500 26 c 1
 500 0 l 1
 476 2 431 2 405 2 c 0
 379 2 335 2 311 0 c 1
 311 26 l 1
 375 26 379 31 379 69 c 2
 379 308 l 2
 379 356 371 422 297 422 c 0xb8
 227 422 171 353 171 261 c 2
 171 69 l 2
 171 30 175 26 239 26 c 1
 239 0 l 1
 215 2 170 2 144 2 c 0
 118 2 74 2 50 0 c 1
 50 26 l 1
 114 26 118 31 118 69 c 2
 118 347 l 2
 118 395 109 401 50 401 c 1
 50 427 l 1xd8
 168 438 l 1
 168 337 l 1
 169 337 l 1
 184 377 225 438 304 438 c 0
 422 438 432 355 432 304 c 2xb8
EndSplineSet
EndChar

StartChar: o
Encoding: 111 111 40
Width: 504
Flags: W
HStem: -8 18<207.764 296.313> 426 16<210.98 292.882>
VStem: 50 64<115.516 315.517> 390 64<114.505 314.629>
LayerCount: 2
Fore
SplineSet
454 214 m 0
 454 88 361 -8 252 -8 c 0
 143 -8 50 88 50 214 c 0
 50 342 143 442 252 442 c 0
 361 442 454 342 454 214 c 0
252 10 m 0
 290 10 333 29 361 75 c 1
 388 123 390 183 390 222 c 0
 390 253 390 319 359 366 c 0
 335 401 297 426 252 426 c 0
 201 426 162 394 142 361 c 0
 116 316 114 264 114 222 c 0
 114 178 117 122 142 77 c 1
 165 38 205 10 252 10 c 0
EndSplineSet
EndChar

StartChar: p
Encoding: 112 112 41
Width: 546
Flags: W
HStem: -195 26<50 113.359 175.641 239> -8 16<248.232 327.936> 401 26<50 110.116> 420 18<253.458 334.869>
VStem: 118 53<-166.011 397.004> 432 64<115.003 317.974>
LayerCount: 2
Fore
SplineSet
239 -169 m 1xdc
 239 -195 l 1
 215 -193 170 -193 144 -193 c 0
 118 -193 74 -193 50 -195 c 1
 50 -169 l 1
 114 -169 118 -164 118 -126 c 2
 118 347 l 2
 118 395 109 401 50 401 c 1
 50 427 l 1xec
 169 438 l 1
 169 365 l 1
 197 405 246 438 306 438 c 0
 409 438 496 342 496 216 c 0
 496 80 395 -8 295 -8 c 0
 242 -8 200 19 171 61 c 1
 171 -126 l 2
 171 -165 175 -169 239 -169 c 1xdc
171 314 m 2
 171 116 l 2
 171 100 171 94 184 72 c 0
 214 25 253 8 289 8 c 0
 368 8 432 101 432 215 c 0
 432 329 372 420 299 420 c 0xdc
 249 420 215 390 210 386 c 0
 171 349 171 328 171 314 c 2
EndSplineSet
EndChar

StartChar: q
Encoding: 113 113 42
Width: 546
Flags: W
HStem: -195 26<307 370.359 432.641 496> -8 16<213.7 288.041> 420 18<216.004 296.719>
VStem: 50 64<113.798 314.578> 375 53<-166.011 356.758> 412 16<414.9 438>
LayerCount: 2
Fore
SplineSet
428 438 m 1xf4
 428 -126 l 2
 428 -165 432 -169 496 -169 c 1
 496 -195 l 1
 472 -193 427 -193 401 -193 c 0
 375 -193 331 -193 307 -195 c 1
 307 -169 l 1
 371 -169 375 -164 375 -126 c 2
 375 73 l 1xf8
 362 51 319 -8 242 -8 c 0
 142 -8 50 84 50 215 c 0
 50 347 148 438 250 438 c 0
 317 438 359 392 382 339 c 1
 412 438 l 1
 428 438 l 1xf4
377 137 m 2
 377 277 l 2
 377 329 337 420 257 420 c 0
 180 420 114 331 114 214 c 0
 114 103 172 8 247 8 c 0
 271 8 307 16 338 51 c 0
 341 54 377 94 377 137 c 2
EndSplineSet
EndChar

StartChar: r
Encoding: 114 114 43
Width: 402
Flags: W
HStem: 0 26<50 113.359 175.204 253> 401 26<50 110.116> 422 16<249.949 305.194>
VStem: 118 51<29.3788 397.004> 284 68<353.217 417.995>
LayerCount: 2
Fore
SplineSet
169 236 m 2xb8
 169 71 l 2
 169 26 181 26 253 26 c 1
 253 0 l 1
 226 2 175 2 146 2 c 0
 120 2 74 2 50 0 c 1
 50 26 l 1
 114 26 118 31 118 69 c 2
 118 347 l 2
 118 395 109 401 50 401 c 1
 50 427 l 1xd8
 166 438 l 1
 166 329 l 1
 167 329 l 1
 177 364 210 438 286 438 c 0
 320 438 352 418 352 386 c 0
 352 358 330 351 318 351 c 0
 303 351 284 361 284 385 c 0
 284 411 306 418 306 418 c 1
 299 421 292 422 285 422 c 0
 210 422 169 332 169 236 c 2xb8
EndSplineSet
EndChar

StartChar: s
Encoding: 115 115 44
Width: 408
Flags: W
HStem: -8 16<159.512 256.932> 428 14<149.755 244.069>
VStem: 50 36<302.336 386.627> 50 20<122.529 176.992> 316 18<290.002 349.049> 322 36<55.5993 154.62>
LayerCount: 2
Fore
SplineSet
334 422 m 2xe8
 334 310 l 2
 334 293 334 290 325 290 c 0
 322 290 317 291 316 296 c 0
 314 328 308 428 201 428 c 0
 100 428 86 373 86 347 c 0xe8
 86 286 156 272 211 260 c 1
 253 252 288 245 318 214 c 0
 331 202 358 175 358 124 c 0
 358 46 305 -8 206 -8 c 0
 150 -8 115 18 95 45 c 1
 89 35 74 11 68 2 c 0
 63 -6 62 -7 57 -7 c 0
 51 -7 50 -6 50 12 c 2
 50 156 l 2
 50 176 51 177 59 177 c 0
 67 177 67 176 70 162 c 0
 88 74 119 8 206 8 c 0
 298 8 322 62 322 104 c 0xd4
 322 140 300 162 287 174 c 0
 266 192 244 196 181 209 c 0
 152 215 50 236 50 326 c 0
 50 384 90 442 201 442 c 0
 218 442 263 441 295 407 c 1
 298 411 307 421 310 425 c 0
 322 440 323 441 327 441 c 0
 333 441 334 440 334 422 c 2xe8
EndSplineSet
EndChar

StartChar: t
Encoding: 116 116 45
Width: 396
Flags: W
HStem: -8 18<228.292 287.768> 404 26<190 330> 404 16<50 86.2465>
VStem: 137 53<39.1458 404> 172 18<537.079 615> 328 18<65.3196 181>
LayerCount: 2
Fore
SplineSet
190 404 m 1xd4
 190 121 l 2
 190 30 230 10 259 10 c 0
 301 10 328 56 328 125 c 2
 328 181 l 1
 346 181 l 1
 346 124 l 2
 346 50 312 -8 253 -8 c 0
 137 -8 137 104 137 123 c 2
 137 404 l 1
 50 404 l 1
 50 420 l 1xb4
 135 422 170 512 172 615 c 1
 190 615 l 1
 190 430 l 1xcc
 330 430 l 1
 330 404 l 1
 190 404 l 1xd4
EndSplineSet
EndChar

StartChar: u
Encoding: 117 117 46
Width: 550
Flags: W
HStem: -8 16<213.479 299.024> 0 26<439.884 500> 401 26<50 109.842 311 371.116> 418 20G<50 171 311 432>
VStem: 118 53<37.2614 396.88> 379 53<29.9956 397.004>
LayerCount: 2
Fore
SplineSet
311 427 m 1xac
 432 438 l 1
 432 80 l 2
 432 32 441 26 500 26 c 1
 500 0 l 1x5c
 381 -8 l 1
 381 85 l 1
 380 85 l 1
 372 64 339 -8 254 -8 c 0
 182 -8 157 18 144 31 c 0
 118 59 118 102 118 169 c 2
 118 361 l 1
 117 401 90 401 50 401 c 1
 50 427 l 1xac
 171 438 l 1x1c
 171 109 l 2
 171 57 178 8 260 8 c 0
 334 8 379 81 379 165 c 2
 379 347 l 2
 379 395 370 401 311 401 c 1
 311 427 l 1xac
EndSplineSet
EndChar

StartChar: v
Encoding: 118 118 47
Width: 564
Flags: W
HStem: 404 26<50 109.383 178.144 223 377 407.656 469.236 514>
LayerCount: 2
Fore
SplineSet
431 340 m 2
 298 9 l 2
 292 -6 291 -8 282 -8 c 0
 273 -8 272 -6 266 9 c 2
 121 373 l 2
 109 404 88 404 50 404 c 1
 50 430 l 1
 72 428 103 428 130 428 c 0
 155 428 199 428 223 430 c 1
 223 404 l 1
 208 404 175 404 175 380 c 0
 175 376 175 374 181 361 c 2
 300 61 l 1
 410 339 l 2
 416 353 416 355 416 364 c 0
 416 390 402 402 377 404 c 1
 377 430 l 1
 397 428 430 428 451 428 c 0
 470 428 495 429 514 430 c 1
 514 404 l 1
 456 402 440 362 431 340 c 2
EndSplineSet
EndChar

StartChar: w
Encoding: 119 119 48
Width: 747
Flags: W
HStem: 404 26<50 104.006 172.337 218 288 342.132 405.337 451 558 592.056 655.966 697>
LayerCount: 2
Fore
SplineSet
622 342 m 2
 508 8 l 2
 504 -5 501 -8 493 -8 c 0
 486 -8 482 -6 477 9 c 2
 373 311 l 1
 270 9 l 2
 265 -6 261 -8 254 -8 c 0
 246 -8 243 -5 239 8 c 2
 116 368 l 2
 105 401 94 404 50 404 c 1
 50 430 l 1
 71 428 105 428 127 428 c 0
 152 428 194 428 218 430 c 1
 218 404 l 1
 202 404 168 404 168 378 c 0
 168 375 168 373 173 360 c 2
 272 71 l 1
 364 339 l 1
 343 402 343 404 288 404 c 1
 288 430 l 1
 311 428 337 428 362 428 c 0
 386 428 428 428 451 430 c 1
 451 404 l 1
 435 404 401 404 401 378 c 0
 401 374 404 366 406 359 c 2
 508 64 l 1
 602 336 l 2
 604 343 606 352 606 359 c 0
 606 384 589 402 558 404 c 1
 558 430 l 1
 575 428 618 428 637 428 c 0
 657 428 677 429 697 430 c 1
 697 404 l 1
 682 403 642 401 622 342 c 2
EndSplineSet
EndChar

StartChar: x
Encoding: 120 120 49
Width: 582
Flags: W
HStem: 0 26<50 110.631 182.594 202 359 384.33 463.147 532> 404 26<55 124.368 203.838 228 365 383.993 456.172 516>
LayerCount: 2
Fore
SplineSet
309 233 m 1
 443 59 l 2
 467 28 482 26 532 26 c 1
 532 0 l 1
 510 2 478 2 451 2 c 0
 426 2 383 2 359 0 c 1
 359 26 l 1
 375 27 387 35 387 49 c 0
 387 56 375 71 367 82 c 2
 280 195 l 1
 197 93 l 2
 188 81 180 70 180 52 c 0
 180 29 196 27 202 26 c 1
 202 0 l 1
 184 2 140 2 120 2 c 0
 102 2 67 1 50 0 c 1
 50 26 l 1
 77 27 124 31 169 85 c 0
 180 99 267 206 267 210 c 0
 267 213 262 219 260 221 c 2
 145 370 l 2
 121 400 109 404 55 404 c 1
 55 430 l 1
 77 428 109 428 136 428 c 0
 161 428 204 428 228 430 c 1
 228 404 l 1
 211 403 201 393 201 381 c 0
 201 376 201 374 210 363 c 2
 298 248 l 1
 372 342 l 2
 377 349 387 360 387 378 c 0
 387 392 379 402 365 404 c 1
 365 430 l 1
 388 428 419 428 446 428 c 0
 464 428 499 429 516 430 c 1
 516 404 l 1
 472 403 434 387 401 349 c 0
 373 316 339 272 309 233 c 1
EndSplineSet
EndChar

StartChar: y
Encoding: 121 121 50
Width: 564
Flags: W
HStem: -203 16<103.459 170.288> -166 65<84 115.313> 404 26<50 109.841 178.663 223 377 406.74 468.49 514>
VStem: 52 65<-163.209 -102.503>
LayerCount: 2
Fore
SplineSet
430 342 m 2
 252 -97 l 2
 232 -147 196 -203 138 -203 c 0
 93 -203 52 -174 52 -134 c 0
 52 -116 63 -101 85 -101 c 0
 105 -101 117 -116 117 -133 c 0
 117 -150 107 -164 84 -166 c 1
 102 -184 127 -187 138 -187 c 0
 201 -187 227 -118 272 0 c 1
 123 367 l 2
 110 399 104 404 50 404 c 1
 50 430 l 1
 72 428 104 428 131 428 c 0
 156 428 199 428 223 430 c 1
 223 404 l 1
 199 404 176 402 176 380 c 0
 176 379 176 372 181 360 c 2
 300 68 l 1
 409 338 l 2
 414 350 416 355 416 365 c 0
 416 373 415 401 377 404 c 1
 377 430 l 1
 397 428 430 428 451 428 c 0
 470 428 495 429 514 430 c 1
 514 404 l 1
 500 404 455 403 430 342 c 2
EndSplineSet
EndChar

StartChar: z
Encoding: 122 122 51
Width: 452
Flags: W
HStem: 0 18<113 310.158> 414 16<148.992 336>
LayerCount: 2
Fore
SplineSet
391 407 m 2
 113 18 l 1
 241 18 l 2
 363 18 376 69 384 180 c 1
 402 180 l 1
 388 0 l 1
 72 0 l 2
 51 0 50 1 50 15 c 1
 336 414 l 1
 214 414 l 2
 99 414 88 372 81 275 c 1
 63 275 l 1
 73 430 l 1
 377 430 l 2
 395 430 399 430 399 421 c 0
 399 419 399 417 391 407 c 2
EndSplineSet
EndChar

